solid OpenSCAD_Model
  facet normal -1 0 0
    outer loop
      vertex -10 -10 15
      vertex -10 10 65
      vertex -10 10 15
    endloop
  endfacet
  facet normal -1 -0 0
    outer loop
      vertex -10 10 65
      vertex -10 -10 15
      vertex -10 -10 65
    endloop
  endfacet
  facet normal -0 0 1
    outer loop
      vertex -10 10 65
      vertex 10 -10 65
      vertex 10 10 65
    endloop
  endfacet
  facet normal 0 0 1
    outer loop
      vertex 10 -10 65
      vertex -10 10 65
      vertex -10 -10 65
    endloop
  endfacet
  facet normal 1 -0 0
    outer loop
      vertex 10 -10 65
      vertex 10 10 15
      vertex 10 10 65
    endloop
  endfacet
  facet normal 1 0 0
    outer loop
      vertex 10 10 15
      vertex 10 -10 65
      vertex 10 -10 15
    endloop
  endfacet
  facet normal 0 1 -0
    outer loop
      vertex 10 10 15
      vertex -10 10 65
      vertex 10 10 65
    endloop
  endfacet
  facet normal 0 1 0
    outer loop
      vertex -10 10 65
      vertex 10 10 15
      vertex -10 10 15
    endloop
  endfacet
  facet normal 0 -1 0
    outer loop
      vertex -10 -10 15
      vertex 10 -10 65
      vertex -10 -10 65
    endloop
  endfacet
  facet normal 0 -1 -0
    outer loop
      vertex 10 -10 65
      vertex -10 -10 15
      vertex 10 -10 15
    endloop
  endfacet
  facet normal 0 0.83205 -0.5547
    outer loop
      vertex 0 0 0
      vertex -10 10 15
      vertex 10 10 15
    endloop
  endfacet
  facet normal -0.83205 0 -0.5547
    outer loop
      vertex 0 0 0
      vertex -10 -10 15
      vertex -10 10 15
    endloop
  endfacet
  facet normal 0.83205 0 -0.5547
    outer loop
      vertex 10 -10 15
      vertex 0 0 0
      vertex 10 10 15
    endloop
  endfacet
  facet normal -0 -0.83205 -0.5547
    outer loop
      vertex 10 -10 15
      vertex -10 -10 15
      vertex 0 0 0
    endloop
  endfacet
endsolid OpenSCAD_Model
