solid OpenSCAD_Model
  facet normal -0 0 1
    outer loop
      vertex -18 200 65
      vertex -10 -200 65
      vertex -10 200 65
    endloop
  endfacet
  facet normal 0 0 1
    outer loop
      vertex -10 -200 65
      vertex -18 200 65
      vertex -18 -200 65
    endloop
  endfacet
  facet normal 0 0 -1
    outer loop
      vertex -18 -200 40
      vertex -10 200 40
      vertex -10 -200 40
    endloop
  endfacet
  facet normal -0 0 -1
    outer loop
      vertex -10 200 40
      vertex -18 -200 40
      vertex -18 200 40
    endloop
  endfacet
  facet normal 0 -1 0
    outer loop
      vertex -18 -200 40
      vertex -10 -200 65
      vertex -18 -200 65
    endloop
  endfacet
  facet normal 0 -1 -0
    outer loop
      vertex -10 -200 65
      vertex -18 -200 40
      vertex -10 -200 40
    endloop
  endfacet
  facet normal 1 -0 0
    outer loop
      vertex -10 -200 65
      vertex -10 200 40
      vertex -10 200 65
    endloop
  endfacet
  facet normal 1 0 0
    outer loop
      vertex -10 200 40
      vertex -10 -200 65
      vertex -10 -200 40
    endloop
  endfacet
  facet normal 0 1 -0
    outer loop
      vertex -10 200 40
      vertex -18 200 65
      vertex -10 200 65
    endloop
  endfacet
  facet normal 0 1 0
    outer loop
      vertex -18 200 65
      vertex -10 200 40
      vertex -18 200 40
    endloop
  endfacet
  facet normal -1 0 0
    outer loop
      vertex -18 -200 40
      vertex -18 200 65
      vertex -18 200 40
    endloop
  endfacet
  facet normal -1 -0 0
    outer loop
      vertex -18 200 65
      vertex -18 -200 40
      vertex -18 -200 65
    endloop
  endfacet
endsolid OpenSCAD_Model
