solid OpenSCAD_Model
  facet normal 0.994522 0.104529 0
    outer loop
      vertex 200 0 0
      vertex 195.63 41.5823 -10
      vertex 195.63 41.5823 0
    endloop
  endfacet
  facet normal 0.994522 0.104529 0
    outer loop
      vertex 195.63 41.5823 -10
      vertex 200 0 0
      vertex 200 0 -10
    endloop
  endfacet
  facet normal 0.951057 0.309017 0
    outer loop
      vertex 195.63 41.5823 0
      vertex 182.709 81.3473 -10
      vertex 182.709 81.3473 0
    endloop
  endfacet
  facet normal 0.951057 0.309017 0
    outer loop
      vertex 182.709 81.3473 -10
      vertex 195.63 41.5823 0
      vertex 195.63 41.5823 -10
    endloop
  endfacet
  facet normal 0.866025 0.5 0
    outer loop
      vertex 182.709 81.3473 0
      vertex 161.803 117.557 -10
      vertex 161.803 117.557 0
    endloop
  endfacet
  facet normal 0.866025 0.5 0
    outer loop
      vertex 161.803 117.557 -10
      vertex 182.709 81.3473 0
      vertex 182.709 81.3473 -10
    endloop
  endfacet
  facet normal 0.743145 0.669131 0
    outer loop
      vertex 161.803 117.557 0
      vertex 133.826 148.629 -10
      vertex 133.826 148.629 0
    endloop
  endfacet
  facet normal 0.743145 0.669131 0
    outer loop
      vertex 133.826 148.629 -10
      vertex 161.803 117.557 0
      vertex 161.803 117.557 -10
    endloop
  endfacet
  facet normal 0.587785 0.809017 -0
    outer loop
      vertex 133.826 148.629 -10
      vertex 100 173.205 0
      vertex 133.826 148.629 0
    endloop
  endfacet
  facet normal 0.587785 0.809017 0
    outer loop
      vertex 100 173.205 0
      vertex 133.826 148.629 -10
      vertex 100 173.205 -10
    endloop
  endfacet
  facet normal 0.406737 0.913545 -0
    outer loop
      vertex 100 173.205 -10
      vertex 61.8034 190.211 0
      vertex 100 173.205 0
    endloop
  endfacet
  facet normal 0.406737 0.913545 0
    outer loop
      vertex 61.8034 190.211 0
      vertex 100 173.205 -10
      vertex 61.8034 190.211 -10
    endloop
  endfacet
  facet normal 0.207912 0.978148 -0
    outer loop
      vertex 61.8034 190.211 -10
      vertex 20.9057 198.904 0
      vertex 61.8034 190.211 0
    endloop
  endfacet
  facet normal 0.207912 0.978148 0
    outer loop
      vertex 20.9057 198.904 0
      vertex 61.8034 190.211 -10
      vertex 20.9057 198.904 -10
    endloop
  endfacet
  facet normal 0 1 -0
    outer loop
      vertex 20.9057 198.904 -10
      vertex -20.9057 198.904 0
      vertex 20.9057 198.904 0
    endloop
  endfacet
  facet normal 0 1 0
    outer loop
      vertex -20.9057 198.904 0
      vertex 20.9057 198.904 -10
      vertex -20.9057 198.904 -10
    endloop
  endfacet
  facet normal -0.207912 0.978148 0
    outer loop
      vertex -20.9057 198.904 -10
      vertex -61.8034 190.211 0
      vertex -20.9057 198.904 0
    endloop
  endfacet
  facet normal -0.207912 0.978148 0
    outer loop
      vertex -61.8034 190.211 0
      vertex -20.9057 198.904 -10
      vertex -61.8034 190.211 -10
    endloop
  endfacet
  facet normal -0.406737 0.913545 0
    outer loop
      vertex -61.8034 190.211 -10
      vertex -100 173.205 0
      vertex -61.8034 190.211 0
    endloop
  endfacet
  facet normal -0.406737 0.913545 0
    outer loop
      vertex -100 173.205 0
      vertex -61.8034 190.211 -10
      vertex -100 173.205 -10
    endloop
  endfacet
  facet normal -0.587785 0.809017 0
    outer loop
      vertex -100 173.205 -10
      vertex -133.826 148.629 0
      vertex -100 173.205 0
    endloop
  endfacet
  facet normal -0.587785 0.809017 0
    outer loop
      vertex -133.826 148.629 0
      vertex -100 173.205 -10
      vertex -133.826 148.629 -10
    endloop
  endfacet
  facet normal -0.743145 0.669131 0
    outer loop
      vertex -161.803 117.557 -10
      vertex -133.826 148.629 0
      vertex -133.826 148.629 -10
    endloop
  endfacet
  facet normal -0.743145 0.669131 0
    outer loop
      vertex -133.826 148.629 0
      vertex -161.803 117.557 -10
      vertex -161.803 117.557 0
    endloop
  endfacet
  facet normal -0.866025 0.5 0
    outer loop
      vertex -182.709 81.3473 -10
      vertex -161.803 117.557 0
      vertex -161.803 117.557 -10
    endloop
  endfacet
  facet normal -0.866025 0.5 0
    outer loop
      vertex -161.803 117.557 0
      vertex -182.709 81.3473 -10
      vertex -182.709 81.3473 0
    endloop
  endfacet
  facet normal -0.951057 0.309017 0
    outer loop
      vertex -195.63 41.5823 -10
      vertex -182.709 81.3473 0
      vertex -182.709 81.3473 -10
    endloop
  endfacet
  facet normal -0.951057 0.309017 0
    outer loop
      vertex -182.709 81.3473 0
      vertex -195.63 41.5823 -10
      vertex -195.63 41.5823 0
    endloop
  endfacet
  facet normal -0.994522 0.104529 0
    outer loop
      vertex -200 1.13311e-13 -10
      vertex -195.63 41.5823 0
      vertex -195.63 41.5823 -10
    endloop
  endfacet
  facet normal -0.994522 0.104529 0
    outer loop
      vertex -195.63 41.5823 0
      vertex -200 1.13311e-13 -10
      vertex -200 1.13311e-13 0
    endloop
  endfacet
  facet normal -0.994522 -0.104529 0
    outer loop
      vertex -195.63 -41.5823 -10
      vertex -200 1.13311e-13 0
      vertex -200 1.13311e-13 -10
    endloop
  endfacet
  facet normal -0.994522 -0.104529 0
    outer loop
      vertex -200 1.13311e-13 0
      vertex -195.63 -41.5823 -10
      vertex -195.63 -41.5823 0
    endloop
  endfacet
  facet normal -0.951057 -0.309017 0
    outer loop
      vertex -182.709 -81.3473 -10
      vertex -195.63 -41.5823 0
      vertex -195.63 -41.5823 -10
    endloop
  endfacet
  facet normal -0.951057 -0.309017 0
    outer loop
      vertex -195.63 -41.5823 0
      vertex -182.709 -81.3473 -10
      vertex -182.709 -81.3473 0
    endloop
  endfacet
  facet normal -0.866025 -0.5 0
    outer loop
      vertex -161.803 -117.557 -10
      vertex -182.709 -81.3473 0
      vertex -182.709 -81.3473 -10
    endloop
  endfacet
  facet normal -0.866025 -0.5 0
    outer loop
      vertex -182.709 -81.3473 0
      vertex -161.803 -117.557 -10
      vertex -161.803 -117.557 0
    endloop
  endfacet
  facet normal -0.743145 -0.669131 0
    outer loop
      vertex -133.826 -148.629 -10
      vertex -161.803 -117.557 0
      vertex -161.803 -117.557 -10
    endloop
  endfacet
  facet normal -0.743145 -0.669131 0
    outer loop
      vertex -161.803 -117.557 0
      vertex -133.826 -148.629 -10
      vertex -133.826 -148.629 0
    endloop
  endfacet
  facet normal -0.587785 -0.809017 0
    outer loop
      vertex -133.826 -148.629 -10
      vertex -100 -173.205 0
      vertex -133.826 -148.629 0
    endloop
  endfacet
  facet normal -0.587785 -0.809017 -0
    outer loop
      vertex -100 -173.205 0
      vertex -133.826 -148.629 -10
      vertex -100 -173.205 -10
    endloop
  endfacet
  facet normal -0.406737 -0.913545 0
    outer loop
      vertex -100 -173.205 -10
      vertex -61.8034 -190.211 0
      vertex -100 -173.205 0
    endloop
  endfacet
  facet normal -0.406737 -0.913545 -0
    outer loop
      vertex -61.8034 -190.211 0
      vertex -100 -173.205 -10
      vertex -61.8034 -190.211 -10
    endloop
  endfacet
  facet normal -0.207912 -0.978148 0
    outer loop
      vertex -61.8034 -190.211 -10
      vertex -20.9057 -198.904 0
      vertex -61.8034 -190.211 0
    endloop
  endfacet
  facet normal -0.207912 -0.978148 -0
    outer loop
      vertex -20.9057 -198.904 0
      vertex -61.8034 -190.211 -10
      vertex -20.9057 -198.904 -10
    endloop
  endfacet
  facet normal 0 -1 0
    outer loop
      vertex -20.9057 -198.904 -10
      vertex 20.9057 -198.904 0
      vertex -20.9057 -198.904 0
    endloop
  endfacet
  facet normal 0 -1 -0
    outer loop
      vertex 20.9057 -198.904 0
      vertex -20.9057 -198.904 -10
      vertex 20.9057 -198.904 -10
    endloop
  endfacet
  facet normal 0.207912 -0.978148 0
    outer loop
      vertex 20.9057 -198.904 -10
      vertex 61.8034 -190.211 0
      vertex 20.9057 -198.904 0
    endloop
  endfacet
  facet normal 0.207912 -0.978148 0
    outer loop
      vertex 61.8034 -190.211 0
      vertex 20.9057 -198.904 -10
      vertex 61.8034 -190.211 -10
    endloop
  endfacet
  facet normal 0.406737 -0.913545 0
    outer loop
      vertex 61.8034 -190.211 -10
      vertex 100 -173.205 0
      vertex 61.8034 -190.211 0
    endloop
  endfacet
  facet normal 0.406737 -0.913545 0
    outer loop
      vertex 100 -173.205 0
      vertex 61.8034 -190.211 -10
      vertex 100 -173.205 -10
    endloop
  endfacet
  facet normal 0.587785 -0.809017 0
    outer loop
      vertex 100 -173.205 -10
      vertex 133.826 -148.629 0
      vertex 100 -173.205 0
    endloop
  endfacet
  facet normal 0.587785 -0.809017 0
    outer loop
      vertex 133.826 -148.629 0
      vertex 100 -173.205 -10
      vertex 133.826 -148.629 -10
    endloop
  endfacet
  facet normal 0.743145 -0.669131 0
    outer loop
      vertex 133.826 -148.629 0
      vertex 161.803 -117.557 -10
      vertex 161.803 -117.557 0
    endloop
  endfacet
  facet normal 0.743145 -0.669131 0
    outer loop
      vertex 161.803 -117.557 -10
      vertex 133.826 -148.629 0
      vertex 133.826 -148.629 -10
    endloop
  endfacet
  facet normal 0.866025 -0.5 0
    outer loop
      vertex 161.803 -117.557 0
      vertex 182.709 -81.3473 -10
      vertex 182.709 -81.3473 0
    endloop
  endfacet
  facet normal 0.866025 -0.5 0
    outer loop
      vertex 182.709 -81.3473 -10
      vertex 161.803 -117.557 0
      vertex 161.803 -117.557 -10
    endloop
  endfacet
  facet normal 0.951057 -0.309017 0
    outer loop
      vertex 182.709 -81.3473 0
      vertex 195.63 -41.5823 -10
      vertex 195.63 -41.5823 0
    endloop
  endfacet
  facet normal 0.951057 -0.309017 0
    outer loop
      vertex 195.63 -41.5823 -10
      vertex 182.709 -81.3473 0
      vertex 182.709 -81.3473 -10
    endloop
  endfacet
  facet normal 0.994522 -0.104529 0
    outer loop
      vertex 195.63 -41.5823 0
      vertex 200 0 -10
      vertex 200 0 0
    endloop
  endfacet
  facet normal 0.994522 -0.104529 0
    outer loop
      vertex 200 0 -10
      vertex 195.63 -41.5823 0
      vertex 195.63 -41.5823 -10
    endloop
  endfacet
  facet normal 0 0 -1
    outer loop
      vertex 195.63 -41.5823 -10
      vertex 195.63 41.5823 -10
      vertex 200 0 -10
    endloop
  endfacet
  facet normal 0 0 -1
    outer loop
      vertex 182.709 -81.3473 -10
      vertex 195.63 41.5823 -10
      vertex 195.63 -41.5823 -10
    endloop
  endfacet
  facet normal 0 0 -1
    outer loop
      vertex 182.709 -81.3473 -10
      vertex 182.709 81.3473 -10
      vertex 195.63 41.5823 -10
    endloop
  endfacet
  facet normal 0 0 -1
    outer loop
      vertex 161.803 -117.557 -10
      vertex 182.709 81.3473 -10
      vertex 182.709 -81.3473 -10
    endloop
  endfacet
  facet normal 0 0 -1
    outer loop
      vertex 161.803 -117.557 -10
      vertex 161.803 117.557 -10
      vertex 182.709 81.3473 -10
    endloop
  endfacet
  facet normal 0 0 -1
    outer loop
      vertex 133.826 -148.629 -10
      vertex 161.803 117.557 -10
      vertex 161.803 -117.557 -10
    endloop
  endfacet
  facet normal 0 0 -1
    outer loop
      vertex 133.826 -148.629 -10
      vertex 133.826 148.629 -10
      vertex 161.803 117.557 -10
    endloop
  endfacet
  facet normal 0 0 -1
    outer loop
      vertex 100 -173.205 -10
      vertex 133.826 148.629 -10
      vertex 133.826 -148.629 -10
    endloop
  endfacet
  facet normal 0 0 -1
    outer loop
      vertex 100 -173.205 -10
      vertex 100 173.205 -10
      vertex 133.826 148.629 -10
    endloop
  endfacet
  facet normal 0 0 -1
    outer loop
      vertex 61.8034 -190.211 -10
      vertex 100 173.205 -10
      vertex 100 -173.205 -10
    endloop
  endfacet
  facet normal 0 0 -1
    outer loop
      vertex 61.8034 -190.211 -10
      vertex 61.8034 190.211 -10
      vertex 100 173.205 -10
    endloop
  endfacet
  facet normal 0 0 -1
    outer loop
      vertex 20.9057 -198.904 -10
      vertex 61.8034 190.211 -10
      vertex 61.8034 -190.211 -10
    endloop
  endfacet
  facet normal 0 0 -1
    outer loop
      vertex 20.9057 -198.904 -10
      vertex 20.9057 198.904 -10
      vertex 61.8034 190.211 -10
    endloop
  endfacet
  facet normal 0 0 -1
    outer loop
      vertex -20.9057 -198.904 -10
      vertex 20.9057 198.904 -10
      vertex 20.9057 -198.904 -10
    endloop
  endfacet
  facet normal 0 0 -1
    outer loop
      vertex -20.9057 -198.904 -10
      vertex -20.9057 198.904 -10
      vertex 20.9057 198.904 -10
    endloop
  endfacet
  facet normal 0 0 -1
    outer loop
      vertex -61.8034 -190.211 -10
      vertex -20.9057 198.904 -10
      vertex -20.9057 -198.904 -10
    endloop
  endfacet
  facet normal 0 0 -1
    outer loop
      vertex -61.8034 -190.211 -10
      vertex -61.8034 190.211 -10
      vertex -20.9057 198.904 -10
    endloop
  endfacet
  facet normal 0 0 -1
    outer loop
      vertex -100 -173.205 -10
      vertex -61.8034 190.211 -10
      vertex -61.8034 -190.211 -10
    endloop
  endfacet
  facet normal 0 0 -1
    outer loop
      vertex -100 -173.205 -10
      vertex -100 173.205 -10
      vertex -61.8034 190.211 -10
    endloop
  endfacet
  facet normal 0 0 -1
    outer loop
      vertex -133.826 -148.629 -10
      vertex -100 173.205 -10
      vertex -100 -173.205 -10
    endloop
  endfacet
  facet normal 0 0 -1
    outer loop
      vertex -133.826 -148.629 -10
      vertex -133.826 148.629 -10
      vertex -100 173.205 -10
    endloop
  endfacet
  facet normal 0 0 -1
    outer loop
      vertex -161.803 -117.557 -10
      vertex -133.826 148.629 -10
      vertex -133.826 -148.629 -10
    endloop
  endfacet
  facet normal 0 0 -1
    outer loop
      vertex -161.803 -117.557 -10
      vertex -161.803 117.557 -10
      vertex -133.826 148.629 -10
    endloop
  endfacet
  facet normal 0 0 -1
    outer loop
      vertex -182.709 -81.3473 -10
      vertex -161.803 117.557 -10
      vertex -161.803 -117.557 -10
    endloop
  endfacet
  facet normal 0 0 -1
    outer loop
      vertex -182.709 -81.3473 -10
      vertex -182.709 81.3473 -10
      vertex -161.803 117.557 -10
    endloop
  endfacet
  facet normal 0 0 -1
    outer loop
      vertex -195.63 -41.5823 -10
      vertex -182.709 81.3473 -10
      vertex -182.709 -81.3473 -10
    endloop
  endfacet
  facet normal 0 0 -1
    outer loop
      vertex -195.63 -41.5823 -10
      vertex -195.63 41.5823 -10
      vertex -182.709 81.3473 -10
    endloop
  endfacet
  facet normal 0 -0 -1
    outer loop
      vertex -195.63 41.5823 -10
      vertex -195.63 -41.5823 -10
      vertex -200 1.13311e-13 -10
    endloop
  endfacet
  facet normal 0 0 1
    outer loop
      vertex 195.63 41.5823 0
      vertex 195.63 -41.5823 0
      vertex 200 0 0
    endloop
  endfacet
  facet normal 0 0 1
    outer loop
      vertex 182.709 81.3473 0
      vertex 195.63 -41.5823 0
      vertex 195.63 41.5823 0
    endloop
  endfacet
  facet normal 0 0 1
    outer loop
      vertex 182.709 81.3473 0
      vertex 182.709 -81.3473 0
      vertex 195.63 -41.5823 0
    endloop
  endfacet
  facet normal 0 0 1
    outer loop
      vertex 161.803 117.557 0
      vertex 182.709 -81.3473 0
      vertex 182.709 81.3473 0
    endloop
  endfacet
  facet normal 0 0 1
    outer loop
      vertex 161.803 117.557 0
      vertex 161.803 -117.557 0
      vertex 182.709 -81.3473 0
    endloop
  endfacet
  facet normal 0 0 1
    outer loop
      vertex 133.826 148.629 0
      vertex 161.803 -117.557 0
      vertex 161.803 117.557 0
    endloop
  endfacet
  facet normal 0 0 1
    outer loop
      vertex 133.826 148.629 0
      vertex 133.826 -148.629 0
      vertex 161.803 -117.557 0
    endloop
  endfacet
  facet normal 0 0 1
    outer loop
      vertex 100 173.205 0
      vertex 133.826 -148.629 0
      vertex 133.826 148.629 0
    endloop
  endfacet
  facet normal 0 0 1
    outer loop
      vertex 100 173.205 0
      vertex 100 -173.205 0
      vertex 133.826 -148.629 0
    endloop
  endfacet
  facet normal 0 0 1
    outer loop
      vertex 61.8034 190.211 0
      vertex 100 -173.205 0
      vertex 100 173.205 0
    endloop
  endfacet
  facet normal 0 0 1
    outer loop
      vertex 61.8034 190.211 0
      vertex 61.8034 -190.211 0
      vertex 100 -173.205 0
    endloop
  endfacet
  facet normal 0 0 1
    outer loop
      vertex 20.9057 198.904 0
      vertex 61.8034 -190.211 0
      vertex 61.8034 190.211 0
    endloop
  endfacet
  facet normal 0 0 1
    outer loop
      vertex 20.9057 198.904 0
      vertex 20.9057 -198.904 0
      vertex 61.8034 -190.211 0
    endloop
  endfacet
  facet normal -0 0 1
    outer loop
      vertex -20.9057 198.904 0
      vertex 20.9057 -198.904 0
      vertex 20.9057 198.904 0
    endloop
  endfacet
  facet normal 0 0 1
    outer loop
      vertex -20.9057 198.904 0
      vertex -20.9057 -198.904 0
      vertex 20.9057 -198.904 0
    endloop
  endfacet
  facet normal -0 0 1
    outer loop
      vertex -61.8034 190.211 0
      vertex -20.9057 -198.904 0
      vertex -20.9057 198.904 0
    endloop
  endfacet
  facet normal 0 0 1
    outer loop
      vertex -61.8034 190.211 0
      vertex -61.8034 -190.211 0
      vertex -20.9057 -198.904 0
    endloop
  endfacet
  facet normal -0 0 1
    outer loop
      vertex -100 173.205 0
      vertex -61.8034 -190.211 0
      vertex -61.8034 190.211 0
    endloop
  endfacet
  facet normal 0 0 1
    outer loop
      vertex -100 173.205 0
      vertex -100 -173.205 0
      vertex -61.8034 -190.211 0
    endloop
  endfacet
  facet normal -0 0 1
    outer loop
      vertex -133.826 148.629 0
      vertex -100 -173.205 0
      vertex -100 173.205 0
    endloop
  endfacet
  facet normal 0 0 1
    outer loop
      vertex -133.826 148.629 0
      vertex -133.826 -148.629 0
      vertex -100 -173.205 0
    endloop
  endfacet
  facet normal -0 0 1
    outer loop
      vertex -161.803 117.557 0
      vertex -133.826 -148.629 0
      vertex -133.826 148.629 0
    endloop
  endfacet
  facet normal 0 0 1
    outer loop
      vertex -161.803 117.557 0
      vertex -161.803 -117.557 0
      vertex -133.826 -148.629 0
    endloop
  endfacet
  facet normal -0 0 1
    outer loop
      vertex -182.709 81.3473 0
      vertex -161.803 -117.557 0
      vertex -161.803 117.557 0
    endloop
  endfacet
  facet normal 0 0 1
    outer loop
      vertex -182.709 81.3473 0
      vertex -182.709 -81.3473 0
      vertex -161.803 -117.557 0
    endloop
  endfacet
  facet normal -0 0 1
    outer loop
      vertex -195.63 41.5823 0
      vertex -182.709 -81.3473 0
      vertex -182.709 81.3473 0
    endloop
  endfacet
  facet normal 0 0 1
    outer loop
      vertex -195.63 41.5823 0
      vertex -195.63 -41.5823 0
      vertex -182.709 -81.3473 0
    endloop
  endfacet
  facet normal 0 -0 1
    outer loop
      vertex -195.63 -41.5823 0
      vertex -195.63 41.5823 0
      vertex -200 1.13311e-13 0
    endloop
  endfacet
endsolid OpenSCAD_Model
